<svg xmlns="http://www.w3.org/2000/svg" width="1200" height="420" viewBox="0 0 1200 420">
<rect width="1200" height="420" fill="#ffffff"/>
<text x="60" y="55" font-family="Arial" font-size="28" font-weight="700" fill="#1f2937">Retail Performance Market Intelligence — Analytical Workflow</text>
<text x="60" y="88" font-family="Arial" font-size="16" fill="#6b7280">Process documented in the project report</text>
<g><rect x="40" y="145" width="165" height="150" rx="14" fill="#f8fafc" stroke="#cbd5e1"/><text x="122" y="180" text-anchor="middle" font-family="Arial" font-size="16" font-weight="700" fill="#111827">Raw Transaction Data</text><text x="122" y="215" text-anchor="middle" font-family="Arial" font-size="13" fill="#475569">Single Excel sheet</text><text x="122" y="238" text-anchor="middle" font-family="Arial" font-size="13" fill="#475569">Jan–Aug 2026</text></g><path d="M 207 220 L 230 220" stroke="#94a3b8" stroke-width="3" marker-end="url(#arrow)"/><g><rect x="233" y="145" width="165" height="150" rx="14" fill="#f8fafc" stroke="#cbd5e1"/><text x="315" y="180" text-anchor="middle" font-family="Arial" font-size="16" font-weight="700" fill="#111827">Data Quality Audit</text><text x="315" y="215" text-anchor="middle" font-family="Arial" font-size="13" fill="#475569">Duplicates • Labels</text><text x="315" y="238" text-anchor="middle" font-family="Arial" font-size="13" fill="#475569">Revenue • Missing Cost</text></g><path d="M 400 220 L 423 220" stroke="#94a3b8" stroke-width="3" marker-end="url(#arrow)"/><g><rect x="426" y="145" width="165" height="150" rx="14" fill="#f8fafc" stroke="#cbd5e1"/><text x="508" y="180" text-anchor="middle" font-family="Arial" font-size="16" font-weight="700" fill="#111827">Power Query Cleaning</text><text x="508" y="215" text-anchor="middle" font-family="Arial" font-size="13" fill="#475569">Standardise • Recalculate</text><text x="508" y="238" text-anchor="middle" font-family="Arial" font-size="13" fill="#475569">Impute • Transform</text></g><path d="M 593 220 L 616 220" stroke="#94a3b8" stroke-width="3" marker-end="url(#arrow)"/><g><rect x="619" y="145" width="165" height="150" rx="14" fill="#f8fafc" stroke="#cbd5e1"/><text x="701" y="180" text-anchor="middle" font-family="Arial" font-size="16" font-weight="700" fill="#111827">DAX & Data Model</text><text x="701" y="215" text-anchor="middle" font-family="Arial" font-size="13" fill="#475569">Measures • Date Table</text><text x="701" y="238" text-anchor="middle" font-family="Arial" font-size="13" fill="#475569">Return treatment</text></g><path d="M 786 220 L 809 220" stroke="#94a3b8" stroke-width="3" marker-end="url(#arrow)"/><g><rect x="812" y="145" width="165" height="150" rx="14" fill="#f8fafc" stroke="#cbd5e1"/><text x="894" y="180" text-anchor="middle" font-family="Arial" font-size="16" font-weight="700" fill="#111827">Power BI Dashboard</text><text x="894" y="215" text-anchor="middle" font-family="Arial" font-size="13" fill="#475569">Home • Overview</text><text x="894" y="238" text-anchor="middle" font-family="Arial" font-size="13" fill="#475569">Discount • Details</text></g><path d="M 979 220 L 1002 220" stroke="#94a3b8" stroke-width="3" marker-end="url(#arrow)"/><g><rect x="1005" y="145" width="165" height="150" rx="14" fill="#f8fafc" stroke="#cbd5e1"/><text x="1087" y="180" text-anchor="middle" font-family="Arial" font-size="16" font-weight="700" fill="#111827">Business Decisions</text><text x="1087" y="215" text-anchor="middle" font-family="Arial" font-size="13" fill="#475569">Insights • Recommendations</text><text x="1087" y="238" text-anchor="middle" font-family="Arial" font-size="13" fill="#475569">Market & margin actions</text></g>
<defs><marker id="arrow" markerWidth="10" markerHeight="10" refX="8" refY="3" orient="auto"><path d="M0,0 L0,6 L9,3 z" fill="#94a3b8"/></marker></defs>
</svg>